<svg width="20" height="20" viewBox="0 0 20 20" fill="none" xmlns="http://www.w3.org/2000/svg">
    <path d="M18.9884 8.20463H18.25V8.16659H10V11.8333H15.1806C14.4248 13.9677 12.3939 15.4999 10 15.4999C6.96267 15.4999 4.50004 13.0373 4.50004 9.99992C4.50004 6.96254 6.96267 4.49992 10 4.49992C11.4021 4.49992 12.6776 5.02884 13.6488 5.89279L16.2416 3.3C14.6045 1.77421 12.4145 0.833252 10 0.833252C4.93775 0.833252 0.833374 4.93763 0.833374 9.99992C0.833374 15.0622 4.93775 19.1666 10 19.1666C15.0623 19.1666 19.1667 15.0622 19.1667 9.99992C19.1667 9.38529 19.1035 8.78534 18.9884 8.20463Z" fill="#FFC107"/>
    <path d="M1.89001 5.73329L4.90172 7.942C5.71664 5.92442 7.69022 4.49992 9.99976 4.49992C11.4018 4.49992 12.6773 5.02883 13.6486 5.89279L16.2413 3.3C14.6042 1.77421 12.4143 0.833252 9.99976 0.833252C6.47885 0.833252 3.42543 2.82104 1.89001 5.73329Z" fill="#FF3D00"/>
    <path d="M10.0001 19.1665C12.3679 19.1665 14.5193 18.2604 16.1459 16.7868L13.3088 14.3861C12.3576 15.1095 11.1952 15.5008 10.0001 15.4998C7.61585 15.4998 5.59139 13.9795 4.82873 11.8579L1.83948 14.161C3.35656 17.1297 6.43748 19.1665 10.0001 19.1665Z" fill="#4CAF50"/>
    <path d="M18.9883 8.20455H18.2499V8.1665H9.99988V11.8332H15.1804C14.8189 12.849 14.1677 13.7367 13.3072 14.3865L13.3086 14.3856L16.1457 16.7864C15.9449 16.9688 19.1665 14.5832 19.1665 9.99984C19.1665 9.38521 19.1033 8.78525 18.9883 8.20455Z" fill="#1976D2"/>
</svg>
